<mxfile host="app.diagrams.net" modified="2024-04-05T08:20:09.601Z" agent="Mozilla/5.0 (Windows NT 10.0; Win64; x64) AppleWebKit/537.36 (KHTML, like Gecko) Chrome/123.0.0.0 Safari/537.36 Edg/123.0.0.0" etag="31LFEQXJoUN25EbgVNHJ" version="24.2.0" type="github">
  <diagram name="第 1 页" id="_4ZrP0tn3PniAPQ0Jjzl">
    <mxGraphModel dx="1383" dy="858" grid="0" gridSize="10" guides="1" tooltips="1" connect="1" arrows="0" fold="1" page="1" pageScale="1" pageWidth="827" pageHeight="1169" math="0" shadow="0">
      <root>
        <mxCell id="0" />
        <mxCell id="1" parent="0" />
        <mxCell id="Z8dBPlKUc89xwZBvlWtI-1" value="生活保健智慧平台" style="rounded=0;whiteSpace=wrap;html=1;" parent="1" vertex="1">
          <mxGeometry x="246" y="69" width="300" height="60" as="geometry" />
        </mxCell>
        <mxCell id="Z8dBPlKUc89xwZBvlWtI-14" style="edgeStyle=orthogonalEdgeStyle;rounded=0;orthogonalLoop=1;jettySize=auto;html=1;exitX=0.5;exitY=0;exitDx=0;exitDy=0;entryX=0.5;entryY=1;entryDx=0;entryDy=0;endArrow=none;endFill=0;" parent="1" source="Z8dBPlKUc89xwZBvlWtI-2" target="Z8dBPlKUc89xwZBvlWtI-1" edge="1">
          <mxGeometry relative="1" as="geometry" />
        </mxCell>
        <mxCell id="Z8dBPlKUc89xwZBvlWtI-2" value="&lt;p style=&quot;&quot; class=&quot;MsoNormal&quot;&gt;&lt;span style=&quot;mso-spacerun:&#39;yes&#39;;font-family:宋体;mso-ascii-font-family:Calibri;&lt;br/&gt;mso-hansi-font-family:Calibri;mso-bidi-font-family:&#39;Times New Roman&#39;;font-size:10.5000pt;&lt;br/&gt;mso-font-kerning:1.0000pt;&quot;&gt;资讯&lt;/span&gt;&lt;span style=&quot;mso-spacerun:&#39;yes&#39;;font-family:宋体;mso-ascii-font-family:Calibri;&lt;br/&gt;mso-hansi-font-family:Calibri;mso-bidi-font-family:&#39;Times New Roman&#39;;font-size:10.5000pt;&lt;br/&gt;mso-font-kerning:1.0000pt;&quot;&gt;浏览模块&lt;/span&gt;&lt;/p&gt;" style="rounded=0;whiteSpace=wrap;html=1;align=center;" parent="1" vertex="1">
          <mxGeometry x="181" y="219" width="70" height="160" as="geometry" />
        </mxCell>
        <mxCell id="Z8dBPlKUc89xwZBvlWtI-15" style="edgeStyle=orthogonalEdgeStyle;rounded=0;orthogonalLoop=1;jettySize=auto;html=1;exitX=0.5;exitY=0;exitDx=0;exitDy=0;entryX=0.5;entryY=1;entryDx=0;entryDy=0;endArrow=none;endFill=0;" parent="1" source="Z8dBPlKUc89xwZBvlWtI-5" target="Z8dBPlKUc89xwZBvlWtI-1" edge="1">
          <mxGeometry relative="1" as="geometry" />
        </mxCell>
        <mxCell id="Z8dBPlKUc89xwZBvlWtI-5" value="&lt;p style=&quot;&quot; class=&quot;MsoNormal&quot;&gt;&lt;font face=&quot;宋体&quot;&gt;&lt;span style=&quot;font-size: 14px;&quot;&gt;商品购物模块&lt;/span&gt;&lt;/font&gt;&lt;/p&gt;" style="rounded=0;whiteSpace=wrap;html=1;align=center;" parent="1" vertex="1">
          <mxGeometry x="271" y="219" width="70" height="160" as="geometry" />
        </mxCell>
        <mxCell id="Z8dBPlKUc89xwZBvlWtI-16" style="edgeStyle=orthogonalEdgeStyle;rounded=0;orthogonalLoop=1;jettySize=auto;html=1;exitX=0.5;exitY=0;exitDx=0;exitDy=0;entryX=0.5;entryY=1;entryDx=0;entryDy=0;endArrow=none;endFill=0;" parent="1" source="Z8dBPlKUc89xwZBvlWtI-6" target="Z8dBPlKUc89xwZBvlWtI-1" edge="1">
          <mxGeometry relative="1" as="geometry" />
        </mxCell>
        <mxCell id="Z8dBPlKUc89xwZBvlWtI-6" value="&lt;p style=&quot;&quot; class=&quot;MsoNormal&quot;&gt;&lt;font face=&quot;宋体&quot;&gt;&lt;span style=&quot;font-size: 14px;&quot;&gt;皮肤病&lt;/span&gt;&lt;/font&gt;&lt;/p&gt;&lt;p style=&quot;&quot; class=&quot;MsoNormal&quot;&gt;&lt;font face=&quot;宋体&quot;&gt;&lt;span style=&quot;font-size: 14px;&quot;&gt;检测模块&lt;/span&gt;&lt;/font&gt;&lt;/p&gt;" style="rounded=0;whiteSpace=wrap;html=1;align=center;" parent="1" vertex="1">
          <mxGeometry x="361" y="219" width="70" height="160" as="geometry" />
        </mxCell>
        <mxCell id="Z8dBPlKUc89xwZBvlWtI-17" style="edgeStyle=orthogonalEdgeStyle;rounded=0;orthogonalLoop=1;jettySize=auto;html=1;exitX=0.5;exitY=0;exitDx=0;exitDy=0;entryX=0.5;entryY=1;entryDx=0;entryDy=0;endArrow=none;endFill=0;" parent="1" source="Z8dBPlKUc89xwZBvlWtI-7" target="Z8dBPlKUc89xwZBvlWtI-1" edge="1">
          <mxGeometry relative="1" as="geometry" />
        </mxCell>
        <mxCell id="Z8dBPlKUc89xwZBvlWtI-7" value="&lt;p style=&quot;&quot; class=&quot;MsoNormal&quot;&gt;&lt;font face=&quot;宋体&quot;&gt;&lt;span style=&quot;font-size: 14px;&quot;&gt;健康问诊模块&lt;/span&gt;&lt;/font&gt;&lt;/p&gt;" style="rounded=0;whiteSpace=wrap;html=1;align=center;" parent="1" vertex="1">
          <mxGeometry x="454.5" y="219" width="70" height="160" as="geometry" />
        </mxCell>
        <mxCell id="Z8dBPlKUc89xwZBvlWtI-18" style="edgeStyle=orthogonalEdgeStyle;rounded=0;orthogonalLoop=1;jettySize=auto;html=1;exitX=0.5;exitY=0;exitDx=0;exitDy=0;entryX=0.5;entryY=1;entryDx=0;entryDy=0;endArrow=none;endFill=0;" parent="1" source="Z8dBPlKUc89xwZBvlWtI-8" target="Z8dBPlKUc89xwZBvlWtI-1" edge="1">
          <mxGeometry relative="1" as="geometry" />
        </mxCell>
        <mxCell id="Z8dBPlKUc89xwZBvlWtI-8" value="&lt;p style=&quot;&quot; class=&quot;MsoNormal&quot;&gt;&lt;font face=&quot;宋体&quot;&gt;&lt;span style=&quot;font-size: 14px;&quot;&gt;系统管理模块&lt;/span&gt;&lt;/font&gt;&lt;/p&gt;" style="rounded=0;whiteSpace=wrap;html=1;align=center;" parent="1" vertex="1">
          <mxGeometry x="551" y="219" width="70" height="160" as="geometry" />
        </mxCell>
        <mxCell id="BYJonLlBC_9EvAufP8Yv-1" value="资讯浏览模块" style="rounded=0;whiteSpace=wrap;html=1;" parent="1" vertex="1">
          <mxGeometry x="117" y="443" width="161" height="40" as="geometry" />
        </mxCell>
        <mxCell id="BYJonLlBC_9EvAufP8Yv-5" style="edgeStyle=orthogonalEdgeStyle;rounded=0;orthogonalLoop=1;jettySize=auto;html=1;exitX=0.5;exitY=0;exitDx=0;exitDy=0;endArrow=none;endFill=0;" parent="1" source="BYJonLlBC_9EvAufP8Yv-2" target="BYJonLlBC_9EvAufP8Yv-1" edge="1">
          <mxGeometry relative="1" as="geometry" />
        </mxCell>
        <mxCell id="BYJonLlBC_9EvAufP8Yv-2" value="资讯阅读" style="rounded=0;whiteSpace=wrap;html=1;" parent="1" vertex="1">
          <mxGeometry x="168.5" y="531" width="58" height="108" as="geometry" />
        </mxCell>
        <mxCell id="BYJonLlBC_9EvAufP8Yv-8" style="edgeStyle=orthogonalEdgeStyle;rounded=0;orthogonalLoop=1;jettySize=auto;html=1;exitX=0.5;exitY=0;exitDx=0;exitDy=0;endArrow=none;endFill=0;" parent="1" source="BYJonLlBC_9EvAufP8Yv-7" target="BYJonLlBC_9EvAufP8Yv-1" edge="1">
          <mxGeometry relative="1" as="geometry" />
        </mxCell>
        <mxCell id="BYJonLlBC_9EvAufP8Yv-7" value="资讯问答" style="rounded=0;whiteSpace=wrap;html=1;" parent="1" vertex="1">
          <mxGeometry x="256" y="532" width="58" height="108" as="geometry" />
        </mxCell>
        <mxCell id="BYJonLlBC_9EvAufP8Yv-9" value="商品购物模块" style="rounded=0;whiteSpace=wrap;html=1;" parent="1" vertex="1">
          <mxGeometry x="500.5" y="438" width="156.5" height="40" as="geometry" />
        </mxCell>
        <mxCell id="BYJonLlBC_9EvAufP8Yv-10" style="edgeStyle=orthogonalEdgeStyle;rounded=0;orthogonalLoop=1;jettySize=auto;html=1;exitX=0.5;exitY=0;exitDx=0;exitDy=0;endArrow=none;endFill=0;" parent="1" source="BYJonLlBC_9EvAufP8Yv-11" target="BYJonLlBC_9EvAufP8Yv-9" edge="1">
          <mxGeometry relative="1" as="geometry" />
        </mxCell>
        <mxCell id="BYJonLlBC_9EvAufP8Yv-11" value="商品浏览" style="rounded=0;whiteSpace=wrap;html=1;" parent="1" vertex="1">
          <mxGeometry x="464" y="531" width="58" height="108" as="geometry" />
        </mxCell>
        <mxCell id="BYJonLlBC_9EvAufP8Yv-12" style="edgeStyle=orthogonalEdgeStyle;rounded=0;orthogonalLoop=1;jettySize=auto;html=1;exitX=0.5;exitY=0;exitDx=0;exitDy=0;endArrow=none;endFill=0;" parent="1" source="BYJonLlBC_9EvAufP8Yv-13" target="BYJonLlBC_9EvAufP8Yv-9" edge="1">
          <mxGeometry relative="1" as="geometry" />
        </mxCell>
        <mxCell id="BYJonLlBC_9EvAufP8Yv-13" value="商品问答" style="rounded=0;whiteSpace=wrap;html=1;" parent="1" vertex="1">
          <mxGeometry x="549.75" y="531" width="58" height="108" as="geometry" />
        </mxCell>
        <mxCell id="BYJonLlBC_9EvAufP8Yv-16" style="edgeStyle=orthogonalEdgeStyle;rounded=0;orthogonalLoop=1;jettySize=auto;html=1;exitX=0.5;exitY=0;exitDx=0;exitDy=0;entryX=0.5;entryY=1;entryDx=0;entryDy=0;endArrow=none;endFill=0;" parent="1" source="BYJonLlBC_9EvAufP8Yv-14" target="BYJonLlBC_9EvAufP8Yv-9" edge="1">
          <mxGeometry relative="1" as="geometry" />
        </mxCell>
        <mxCell id="BYJonLlBC_9EvAufP8Yv-14" value="购物车&lt;div&gt;功能&lt;/div&gt;" style="rounded=0;whiteSpace=wrap;html=1;" parent="1" vertex="1">
          <mxGeometry x="638" y="531" width="58" height="108" as="geometry" />
        </mxCell>
        <mxCell id="BYJonLlBC_9EvAufP8Yv-17" style="edgeStyle=orthogonalEdgeStyle;rounded=0;orthogonalLoop=1;jettySize=auto;html=1;exitX=0.5;exitY=0;exitDx=0;exitDy=0;endArrow=none;endFill=0;" parent="1" source="BYJonLlBC_9EvAufP8Yv-15" target="BYJonLlBC_9EvAufP8Yv-9" edge="1">
          <mxGeometry relative="1" as="geometry" />
        </mxCell>
        <mxCell id="BYJonLlBC_9EvAufP8Yv-15" value="订单功能" style="rounded=0;whiteSpace=wrap;html=1;" parent="1" vertex="1">
          <mxGeometry x="725" y="531" width="58" height="108" as="geometry" />
        </mxCell>
        <mxCell id="BYJonLlBC_9EvAufP8Yv-18" value="皮肤病检测模块" style="rounded=0;whiteSpace=wrap;html=1;" parent="1" vertex="1">
          <mxGeometry x="125" y="683" width="156.5" height="40" as="geometry" />
        </mxCell>
        <mxCell id="BYJonLlBC_9EvAufP8Yv-19" style="edgeStyle=orthogonalEdgeStyle;rounded=0;orthogonalLoop=1;jettySize=auto;html=1;exitX=0.5;exitY=0;exitDx=0;exitDy=0;endArrow=none;endFill=0;" parent="1" source="BYJonLlBC_9EvAufP8Yv-20" target="BYJonLlBC_9EvAufP8Yv-18" edge="1">
          <mxGeometry relative="1" as="geometry" />
        </mxCell>
        <mxCell id="BYJonLlBC_9EvAufP8Yv-20" value="图片上传" style="rounded=0;whiteSpace=wrap;html=1;" parent="1" vertex="1">
          <mxGeometry x="88.5" y="772" width="58" height="108" as="geometry" />
        </mxCell>
        <mxCell id="BYJonLlBC_9EvAufP8Yv-21" style="edgeStyle=orthogonalEdgeStyle;rounded=0;orthogonalLoop=1;jettySize=auto;html=1;exitX=0.5;exitY=0;exitDx=0;exitDy=0;endArrow=none;endFill=0;" parent="1" source="BYJonLlBC_9EvAufP8Yv-22" target="BYJonLlBC_9EvAufP8Yv-18" edge="1">
          <mxGeometry relative="1" as="geometry" />
        </mxCell>
        <mxCell id="BYJonLlBC_9EvAufP8Yv-22" value="识别检测" style="rounded=0;whiteSpace=wrap;html=1;" parent="1" vertex="1">
          <mxGeometry x="261" y="772" width="58" height="108" as="geometry" />
        </mxCell>
        <mxCell id="BYJonLlBC_9EvAufP8Yv-23" value="健康问诊模块" style="rounded=0;whiteSpace=wrap;html=1;" parent="1" vertex="1">
          <mxGeometry x="529" y="683" width="146" height="40" as="geometry" />
        </mxCell>
        <mxCell id="BYJonLlBC_9EvAufP8Yv-24" style="edgeStyle=orthogonalEdgeStyle;rounded=0;orthogonalLoop=1;jettySize=auto;html=1;exitX=0.5;exitY=0;exitDx=0;exitDy=0;endArrow=none;endFill=0;" parent="1" source="BYJonLlBC_9EvAufP8Yv-25" target="BYJonLlBC_9EvAufP8Yv-23" edge="1">
          <mxGeometry relative="1" as="geometry" />
        </mxCell>
        <mxCell id="BYJonLlBC_9EvAufP8Yv-25" value="对话问答" style="rounded=0;whiteSpace=wrap;html=1;" parent="1" vertex="1">
          <mxGeometry x="485" y="772" width="58" height="108" as="geometry" />
        </mxCell>
        <mxCell id="BYJonLlBC_9EvAufP8Yv-26" style="edgeStyle=orthogonalEdgeStyle;rounded=0;orthogonalLoop=1;jettySize=auto;html=1;exitX=0.5;exitY=0;exitDx=0;exitDy=0;endArrow=none;endFill=0;" parent="1" source="BYJonLlBC_9EvAufP8Yv-27" target="BYJonLlBC_9EvAufP8Yv-23" edge="1">
          <mxGeometry relative="1" as="geometry" />
        </mxCell>
        <mxCell id="BYJonLlBC_9EvAufP8Yv-27" value="对话历史记录回顾" style="rounded=0;whiteSpace=wrap;html=1;" parent="1" vertex="1">
          <mxGeometry x="657" y="772" width="58" height="108" as="geometry" />
        </mxCell>
        <mxCell id="XWwhRLLUf2tSAbu-TSo9-2" style="edgeStyle=orthogonalEdgeStyle;rounded=0;orthogonalLoop=1;jettySize=auto;html=1;exitX=0.5;exitY=0;exitDx=0;exitDy=0;entryX=0.5;entryY=1;entryDx=0;entryDy=0;endArrow=none;endFill=0;" edge="1" parent="1" source="XWwhRLLUf2tSAbu-TSo9-1" target="BYJonLlBC_9EvAufP8Yv-1">
          <mxGeometry relative="1" as="geometry" />
        </mxCell>
        <mxCell id="XWwhRLLUf2tSAbu-TSo9-1" value="资讯检索" style="rounded=0;whiteSpace=wrap;html=1;" vertex="1" parent="1">
          <mxGeometry x="81" y="532" width="58" height="108" as="geometry" />
        </mxCell>
        <mxCell id="XWwhRLLUf2tSAbu-TSo9-5" style="edgeStyle=orthogonalEdgeStyle;rounded=0;orthogonalLoop=1;jettySize=auto;html=1;exitX=0.5;exitY=0;exitDx=0;exitDy=0;endArrow=none;endFill=0;" edge="1" parent="1" source="XWwhRLLUf2tSAbu-TSo9-3" target="BYJonLlBC_9EvAufP8Yv-9">
          <mxGeometry relative="1" as="geometry" />
        </mxCell>
        <mxCell id="XWwhRLLUf2tSAbu-TSo9-3" value="商品检索" style="rounded=0;whiteSpace=wrap;html=1;" vertex="1" parent="1">
          <mxGeometry x="381" y="531" width="58" height="108" as="geometry" />
        </mxCell>
        <mxCell id="XWwhRLLUf2tSAbu-TSo9-6" value="系统管理模块" style="rounded=0;whiteSpace=wrap;html=1;" vertex="1" parent="1">
          <mxGeometry x="292" y="1229" width="157" height="48" as="geometry" />
        </mxCell>
        <mxCell id="XWwhRLLUf2tSAbu-TSo9-24" style="edgeStyle=orthogonalEdgeStyle;rounded=0;orthogonalLoop=1;jettySize=auto;html=1;exitX=0.5;exitY=0;exitDx=0;exitDy=0;endArrow=none;endFill=0;" edge="1" parent="1" source="XWwhRLLUf2tSAbu-TSo9-8" target="XWwhRLLUf2tSAbu-TSo9-6">
          <mxGeometry relative="1" as="geometry" />
        </mxCell>
        <mxCell id="XWwhRLLUf2tSAbu-TSo9-8" value="资讯模块" style="rounded=0;whiteSpace=wrap;html=1;" vertex="1" parent="1">
          <mxGeometry x="93.88" y="1320" width="105" height="52" as="geometry" />
        </mxCell>
        <mxCell id="XWwhRLLUf2tSAbu-TSo9-25" style="edgeStyle=orthogonalEdgeStyle;rounded=0;orthogonalLoop=1;jettySize=auto;html=1;exitX=0.5;exitY=0;exitDx=0;exitDy=0;endArrow=none;endFill=0;" edge="1" parent="1" source="XWwhRLLUf2tSAbu-TSo9-9" target="XWwhRLLUf2tSAbu-TSo9-6">
          <mxGeometry relative="1" as="geometry" />
        </mxCell>
        <mxCell id="XWwhRLLUf2tSAbu-TSo9-9" value="商品模块" style="rounded=0;whiteSpace=wrap;html=1;" vertex="1" parent="1">
          <mxGeometry x="231.38" y="1320" width="105" height="52" as="geometry" />
        </mxCell>
        <mxCell id="XWwhRLLUf2tSAbu-TSo9-26" style="edgeStyle=orthogonalEdgeStyle;rounded=0;orthogonalLoop=1;jettySize=auto;html=1;exitX=0.5;exitY=0;exitDx=0;exitDy=0;endArrow=none;endFill=0;" edge="1" parent="1" source="XWwhRLLUf2tSAbu-TSo9-10" target="XWwhRLLUf2tSAbu-TSo9-6">
          <mxGeometry relative="1" as="geometry" />
        </mxCell>
        <mxCell id="XWwhRLLUf2tSAbu-TSo9-10" value="用户模块" style="rounded=0;whiteSpace=wrap;html=1;" vertex="1" parent="1">
          <mxGeometry x="378.38" y="1320" width="105" height="52" as="geometry" />
        </mxCell>
        <mxCell id="XWwhRLLUf2tSAbu-TSo9-27" style="edgeStyle=orthogonalEdgeStyle;rounded=0;orthogonalLoop=1;jettySize=auto;html=1;exitX=0.5;exitY=0;exitDx=0;exitDy=0;endArrow=none;endFill=0;" edge="1" parent="1" source="XWwhRLLUf2tSAbu-TSo9-11" target="XWwhRLLUf2tSAbu-TSo9-6">
          <mxGeometry relative="1" as="geometry" />
        </mxCell>
        <mxCell id="XWwhRLLUf2tSAbu-TSo9-11" value="基础设施管理模块" style="rounded=0;whiteSpace=wrap;html=1;" vertex="1" parent="1">
          <mxGeometry x="518.13" y="1320" width="129" height="52" as="geometry" />
        </mxCell>
        <mxCell id="XWwhRLLUf2tSAbu-TSo9-18" style="edgeStyle=orthogonalEdgeStyle;rounded=0;orthogonalLoop=1;jettySize=auto;html=1;exitX=0.5;exitY=0;exitDx=0;exitDy=0;entryX=0.5;entryY=1;entryDx=0;entryDy=0;endArrow=none;endFill=0;" edge="1" parent="1" source="XWwhRLLUf2tSAbu-TSo9-12" target="XWwhRLLUf2tSAbu-TSo9-8">
          <mxGeometry relative="1" as="geometry" />
        </mxCell>
        <mxCell id="XWwhRLLUf2tSAbu-TSo9-12" value="资讯编辑及发布" style="rounded=0;whiteSpace=wrap;html=1;" vertex="1" parent="1">
          <mxGeometry x="113.75" y="1418" width="64.5" height="61" as="geometry" />
        </mxCell>
        <mxCell id="XWwhRLLUf2tSAbu-TSo9-19" style="edgeStyle=orthogonalEdgeStyle;rounded=0;orthogonalLoop=1;jettySize=auto;html=1;exitX=0.5;exitY=0;exitDx=0;exitDy=0;entryX=0.5;entryY=1;entryDx=0;entryDy=0;endArrow=none;endFill=0;" edge="1" parent="1" source="XWwhRLLUf2tSAbu-TSo9-13" target="XWwhRLLUf2tSAbu-TSo9-9">
          <mxGeometry relative="1" as="geometry" />
        </mxCell>
        <mxCell id="XWwhRLLUf2tSAbu-TSo9-13" value="商品编辑及发布" style="rounded=0;whiteSpace=wrap;html=1;" vertex="1" parent="1">
          <mxGeometry x="210" y="1418" width="64.5" height="61" as="geometry" />
        </mxCell>
        <mxCell id="XWwhRLLUf2tSAbu-TSo9-20" style="edgeStyle=orthogonalEdgeStyle;rounded=0;orthogonalLoop=1;jettySize=auto;html=1;exitX=0.5;exitY=0;exitDx=0;exitDy=0;entryX=0.5;entryY=1;entryDx=0;entryDy=0;endArrow=none;endFill=0;" edge="1" parent="1" source="XWwhRLLUf2tSAbu-TSo9-14" target="XWwhRLLUf2tSAbu-TSo9-9">
          <mxGeometry relative="1" as="geometry" />
        </mxCell>
        <mxCell id="XWwhRLLUf2tSAbu-TSo9-14" value="订单查询及状态修改" style="rounded=0;whiteSpace=wrap;html=1;" vertex="1" parent="1">
          <mxGeometry x="292" y="1418" width="64.5" height="61" as="geometry" />
        </mxCell>
        <mxCell id="XWwhRLLUf2tSAbu-TSo9-21" style="edgeStyle=orthogonalEdgeStyle;rounded=0;orthogonalLoop=1;jettySize=auto;html=1;exitX=0.5;exitY=0;exitDx=0;exitDy=0;endArrow=none;endFill=0;" edge="1" parent="1" source="XWwhRLLUf2tSAbu-TSo9-15" target="XWwhRLLUf2tSAbu-TSo9-10">
          <mxGeometry relative="1" as="geometry" />
        </mxCell>
        <mxCell id="XWwhRLLUf2tSAbu-TSo9-15" value="用户信息及状态管理" style="rounded=0;whiteSpace=wrap;html=1;" vertex="1" parent="1">
          <mxGeometry x="398.25" y="1416" width="64.5" height="61" as="geometry" />
        </mxCell>
        <mxCell id="XWwhRLLUf2tSAbu-TSo9-22" style="edgeStyle=orthogonalEdgeStyle;rounded=0;orthogonalLoop=1;jettySize=auto;html=1;exitX=0.5;exitY=0;exitDx=0;exitDy=0;entryX=0.5;entryY=1;entryDx=0;entryDy=0;endArrow=none;endFill=0;" edge="1" parent="1" source="XWwhRLLUf2tSAbu-TSo9-16" target="XWwhRLLUf2tSAbu-TSo9-11">
          <mxGeometry relative="1" as="geometry" />
        </mxCell>
        <mxCell id="XWwhRLLUf2tSAbu-TSo9-16" value="服务监测" style="rounded=0;whiteSpace=wrap;html=1;" vertex="1" parent="1">
          <mxGeometry x="506.5" y="1416" width="64.5" height="61" as="geometry" />
        </mxCell>
        <mxCell id="XWwhRLLUf2tSAbu-TSo9-23" style="edgeStyle=orthogonalEdgeStyle;rounded=0;orthogonalLoop=1;jettySize=auto;html=1;exitX=0.5;exitY=0;exitDx=0;exitDy=0;entryX=0.5;entryY=1;entryDx=0;entryDy=0;endArrow=none;endFill=0;" edge="1" parent="1" source="XWwhRLLUf2tSAbu-TSo9-17" target="XWwhRLLUf2tSAbu-TSo9-11">
          <mxGeometry relative="1" as="geometry" />
        </mxCell>
        <mxCell id="XWwhRLLUf2tSAbu-TSo9-17" value="环境配置" style="rounded=0;whiteSpace=wrap;html=1;" vertex="1" parent="1">
          <mxGeometry x="592.5" y="1416" width="64.5" height="61" as="geometry" />
        </mxCell>
      </root>
    </mxGraphModel>
  </diagram>
</mxfile>
